# xmcd
#
# Track frame offsets: 
#        150
#        14808
#        37333
#        55377
#        75698
#        84885
#        106917
#        127107
#        141570
#        160515
#        180799
#
# Disc length: 2552 seconds
#
# Revision: 0
# Processed by: cddbd v1.5.2PL0 Copyright (c) Steve Scherf et al.
# Submitted via: ExactAudioCopy v0.99pb3
#
DISCID=8f09f60b
DTITLE=Gibonni - Toleranca
DYEAR=2010
DGENRE=Pop
TTITLE0=Toleranca
TTITLE1=Zedjam
TTITLE2=Zamoli me (mozda ti je ispod casti)
TTITLE3=Vesla na vodi
TTITLE4=Mala vesla
TTITLE5=Slavim ove dane sto si tu
TTITLE6=Vrata do nas
TTITLE7=Opet si Bogu drag
TTITLE8=Vrata moje sestre
TTITLE9=Cemu se nadas, srce moje
TTITLE10=Toleranca (drugo citanje)
EXTD=
EXTT0=
EXTT1=
EXTT2=
EXTT3=
EXTT4=
EXTT5=
EXTT6=
EXTT7=
EXTT8=
EXTT9=
EXTT10=
PLAYORDER=
